HIERARCHY
ROOT Hips
{
  OFFSET 5.84602e-005 68.8428 3.50346
  CHANNELS 6 Xposition Yposition Zposition Zrotation Xrotation Yrotation
  JOINT Spine
  {
    OFFSET 0 8.597 -4.6522
    CHANNELS 3 Zrotation Xrotation Yrotation
    JOINT Spine1
    {
      OFFSET 0 7.8454 0.4098
      CHANNELS 3 Zrotation Xrotation Yrotation
      JOINT Spine2
      {
        OFFSET 0 9.7078 -2.1609
        CHANNELS 3 Zrotation Xrotation Yrotation
        JOINT Neck
        {
          OFFSET 0 21.8761 -0.4549
          CHANNELS 3 Zrotation Xrotation Yrotation
          JOINT Head
          {
            OFFSET 0 12.3537 3.3602
            CHANNELS 3 Zrotation Xrotation Yrotation
            End Site
            {
              OFFSET 0.0001 18.9506 0.5657
            }
          }
        }
        JOINT LeftShoulder
        {
          OFFSET 2.2086 21.1115 7.2329
          CHANNELS 3 Zrotation Xrotation Yrotation
          JOINT LeftArm
          {
            OFFSET 13.1193 3.0282 -4.8998
            CHANNELS 3 Zrotation Xrotation Yrotation
            JOINT LeftForeArm
            {
              OFFSET 27.4081 -0.0973053 -0.2375
              CHANNELS 3 Zrotation Xrotation Yrotation
              JOINT LeftHand
              {
                OFFSET 22.8641 0.0662994 -0.1369
                CHANNELS 3 Zrotation Xrotation Yrotation
                JOINT LeftHandIndex1
                {
                  OFFSET 8.8614 0.775009 2.4612
                  CHANNELS 3 Zrotation Xrotation Yrotation
                  JOINT LeftHandIndex2
                  {
                    OFFSET 3.3146 -0.808304 0.5841
                    CHANNELS 3 Zrotation Xrotation Yrotation
                    JOINT LeftHandIndex3
                    {
                      OFFSET 2.2628 -0.552002 0.3989
                      CHANNELS 3 Zrotation Xrotation Yrotation
                      End Site
                      {
                        OFFSET 1.6102 -0.4807 0.2612
                      }
                    }
                  }
                }
                JOINT LeftHandMiddle1
                {
                  OFFSET 8.9937 0.895004 0.2143
                  CHANNELS 3 Zrotation Xrotation Yrotation
                  JOINT LeftHandMiddle2
                  {
                    OFFSET 4.0984 0.0113983 -0.0242
                    CHANNELS 3 Zrotation Xrotation Yrotation
                    JOINT LeftHandMiddle3
                    {
                      OFFSET 2.2716 0.00689697 -0.0138001
                      CHANNELS 3 Zrotation Xrotation Yrotation
                      End Site
                      {
                        OFFSET 2.0404 -0.1441 0.0027
                      }
                    }
                  }
                }
                JOINT LeftHandRing1
                {
                  OFFSET 8.5234 0.597198 -2.0164
                  CHANNELS 3 Zrotation Xrotation Yrotation
                  JOINT LeftHandRing2
                  {
                    OFFSET 3.7188 -0.188293 -0.2328
                    CHANNELS 3 Zrotation Xrotation Yrotation
                    JOINT LeftHandRing3
                    {
                      OFFSET 2.1191 -0.106598 -0.1332
                      CHANNELS 3 Zrotation Xrotation Yrotation
                      End Site
                      {
                        OFFSET 1.8737 -0.2304 -0.0886
                      }
                    }
                  }
                }
                JOINT LeftHandPinky1
                {
                  OFFSET 7.9094 -0.601089 -3.4825
                  CHANNELS 3 Zrotation Xrotation Yrotation
                  JOINT LeftHandPinky2
                  {
                    OFFSET 2.2874 -0.477005 -0.6314
                    CHANNELS 3 Zrotation Xrotation Yrotation
                    JOINT LeftHandPinky3
                    {
                      OFFSET 1.6774 -0.349396 -0.4633
                      CHANNELS 3 Zrotation Xrotation Yrotation
                      End Site
                      {
                        OFFSET 1.4888 -0.4091 -0.3416
                      }
                    }
                  }
                }
                JOINT LeftHandThumb1
                {
                  OFFSET 1.833 -1.3875 1.3896
                  CHANNELS 3 Zrotation Xrotation Yrotation
                  JOINT LeftHandThumb2
                  {
                    OFFSET 3.4129 -1.121 2.5732
                    CHANNELS 3 Zrotation Xrotation Yrotation
                    JOINT LeftHandThumb3
                    {
                      OFFSET 2.2474 -0.804199 1.6192
                      CHANNELS 3 Zrotation Xrotation Yrotation
                      End Site
                      {
                        OFFSET 1.6527 -0.5689 1.1317
                      }
                    }
                  }
                }
              }
            }
          }
        }
        JOINT RightShoulder
        {
          OFFSET -2.2086 21.1115 7.2329
          CHANNELS 3 Zrotation Xrotation Yrotation
          JOINT RightArm
          {
            OFFSET -13.1216 3.0287 -4.9007
            CHANNELS 3 Zrotation Xrotation Yrotation
            JOINT RightForeArm
            {
              OFFSET -27.4081 -0.0973053 -0.2375
              CHANNELS 3 Zrotation Xrotation Yrotation
              JOINT RightHand
              {
                OFFSET -22.8641 0.0664063 -0.1369
                CHANNELS 3 Zrotation Xrotation Yrotation
                JOINT RightHandIndex1
                {
                  OFFSET -8.8614 0.774994 2.4612
                  CHANNELS 3 Zrotation Xrotation Yrotation
                  JOINT RightHandIndex2
                  {
                    OFFSET -3.3146 -0.808304 0.5841
                    CHANNELS 3 Zrotation Xrotation Yrotation
                    JOINT RightHandIndex3
                    {
                      OFFSET -2.2628 -0.552002 0.3989
                      CHANNELS 3 Zrotation Xrotation Yrotation
                      End Site
                      {
                        OFFSET -1.6102 -0.4807 0.2612
                      }
                    }
                  }
                }
                JOINT RightHandMiddle1
                {
                  OFFSET -8.9937 0.894989 0.2143
                  CHANNELS 3 Zrotation Xrotation Yrotation
                  JOINT RightHandMiddle2
                  {
                    OFFSET -4.0984 0.0113983 -0.0242
                    CHANNELS 3 Zrotation Xrotation Yrotation
                    JOINT RightHandMiddle3
                    {
                      OFFSET -2.2716 0.00691223 -0.0138001
                      CHANNELS 3 Zrotation Xrotation Yrotation
                      End Site
                      {
                        OFFSET -2.0404 -0.1441 0.0027
                      }
                    }
                  }
                }
                JOINT RightHandRing1
                {
                  OFFSET -8.5234 0.597198 -2.0164
                  CHANNELS 3 Zrotation Xrotation Yrotation
                  JOINT RightHandRing2
                  {
                    OFFSET -3.7188 -0.188309 -0.2328
                    CHANNELS 3 Zrotation Xrotation Yrotation
                    JOINT RightHandRing3
                    {
                      OFFSET -2.1191 -0.106598 -0.1332
                      CHANNELS 3 Zrotation Xrotation Yrotation
                      End Site
                      {
                        OFFSET -1.8737 -0.2304 -0.0886
                      }
                    }
                  }
                }
                JOINT RightHandPinky1
                {
                  OFFSET -7.9094 -0.601105 -3.4825
                  CHANNELS 3 Zrotation Xrotation Yrotation
                  JOINT RightHandPinky2
                  {
                    OFFSET -2.2874 -0.477005 -0.6314
                    CHANNELS 3 Zrotation Xrotation Yrotation
                    JOINT RightHandPinky3
                    {
                      OFFSET -1.6774 -0.349396 -0.4633
                      CHANNELS 3 Zrotation Xrotation Yrotation
                      End Site
                      {
                        OFFSET -1.4888 -0.4091 -0.3416
                      }
                    }
                  }
                }
                JOINT RightHandThumb1
                {
                  OFFSET -1.833 -1.38751 1.3896
                  CHANNELS 3 Zrotation Xrotation Yrotation
                  JOINT RightHandThumb2
                  {
                    OFFSET -3.41299 -1.12099 2.5732
                    CHANNELS 3 Zrotation Xrotation Yrotation
                    JOINT RightHandThumb3
                    {
                      OFFSET -2.24741 -0.804108 1.6192
                      CHANNELS 3 Zrotation Xrotation Yrotation
                      End Site
                      {
                        OFFSET -1.6527 -0.5689 1.1317
                      }
                    }
                  }
                }
              }
            }
          }
        }
      }
    }
  }
  JOINT RightUpLeg
  {
    OFFSET -9.1966 3.8861 -0.7581
    CHANNELS 3 Zrotation Xrotation Yrotation
    JOINT RightLeg
    {
      OFFSET -0.7359 -41.0265 0
      CHANNELS 3 Zrotation Xrotation Yrotation
      JOINT RightFoot
      {
        OFFSET 0 -40.2855 0
        CHANNELS 3 Zrotation Xrotation Yrotation
        JOINT RightToeBase
        {
          OFFSET 0 -5.6122 11.7359
          CHANNELS 3 Zrotation Xrotation Yrotation
          End Site
          {
            OFFSET 0 0 7.8731
          }
        }
      }
    }
  }
  JOINT LeftUpLeg
  {
    OFFSET 9.1965 3.8864 -0.7581
    CHANNELS 3 Zrotation Xrotation Yrotation
    JOINT LeftLeg
    {
      OFFSET 0.7359 -41.0268 0
      CHANNELS 3 Zrotation Xrotation Yrotation
      JOINT LeftFoot
      {
        OFFSET 0 -40.2855 0
        CHANNELS 3 Zrotation Xrotation Yrotation
        JOINT LeftToeBase
        {
          OFFSET 0 -5.6122 11.7359
          CHANNELS 3 Zrotation Xrotation Yrotation
          End Site
          {
            OFFSET 0 0 7.8731
          }
        }
      }
    }
  }
}
MOTION
Frames:	4
Frame Time:	0.0333333
0.489369 17.456 40.9743 -7.01671e-015 7.01671e-015 180 0.201871 4.34885 -0.0588717 0.410018 8.69745 -0.133742 0.410019 8.69746 -0.133742 3.32472e-006 37.8585 -2.38117e-006 -2.60501e-008 -43.7247 -1.50881e-008 1.28094 -41.3516 20.4612 -67.0222 8.035 -31.5697 51.2581 -13.8636 -107.485 -16.0154 -15.329 -6.002 3.18055e-015 -9.54166e-015 6.36111e-015 -1.27222e-014 -1.27222e-014 3.18055e-015 -0 -1.59028e-014 -0 3.18055e-015 -9.54166e-015 6.36111e-015 -0.0145427 -8.55026e-005 7.22046e-006 -1.90833e-014 -6.36111e-015 -3.18055e-015 3.18055e-015 -9.54166e-015 6.36111e-015 -0.0187356 -0.00117513 5.90259e-005 -4.28234e-006 2.7214e-007 3.13944e-008 3.18055e-015 -9.54166e-015 6.36111e-015 -0.0122282 -0.00323731 0.000672014 -5.29669e-031 3.18055e-015 9.54166e-015 3.18055e-015 -9.54166e-015 6.36111e-015 -1.27222e-014 -1.27222e-014 3.18055e-015 -0 -1.59028e-014 -0 6.05522 -27.9856 -22.8563 66.2917 6.26382 23.7598 1.64143 11.6029 103.743 17.8748 -3.24081 -29.6911 -3.18055e-015 -4.96962e-017 -1.98785e-015 2.48282e-032 3.57812e-015 -3.97569e-016 -3.18055e-015 5.96354e-016 -3.97569e-016 -3.18055e-015 -4.96962e-017 -1.98785e-015 0.0150176 -9.32532e-005 -4.64052e-006 -3.18055e-015 1.39149e-015 -1.19271e-015 -3.18055e-015 -4.96962e-017 -1.98785e-015 0.0190074 -0.00119018 -5.79139e-005 -1.59028e-015 1.83876e-015 -7.95139e-016 -3.18055e-015 -4.96962e-017 -1.98785e-015 0.0122536 -0.00324376 -0.000675576 -1.59028e-015 -6.31141e-015 1.19271e-015 -3.18055e-015 -4.96962e-017 -1.98785e-015 2.48282e-032 3.57812e-015 -3.97569e-016 -3.18055e-015 5.96354e-016 -3.97569e-016 -2.59804 -6.62242 -4.58395 -163.937 72.1801 160.308 -13.0916 56.4401 0.784737 -1.77644e-007 6.77586e-007 8.60144e-008 1.72577 -5.76448 4.34406 163 73.1124 -159.392 14.939 56.688 -2.20222 2.07892e-007 -2.56991e-008 -4.08504e-008 
0.490239 17.5215 40.8563 -7.01671e-015 7.01671e-015 180 0.202129 4.57241 -0.0612472 0.411153 9.14456 -0.139406 0.411153 9.14457 -0.139406 1.20621e-005 36.442 -9.9452e-006 1.10515e-007 -43.3801 1.06899e-007 2.18116 -42.0545 21.6861 -67.0553 8.27638 -31.7346 51.1757 -14.1955 -107.902 -15.6164 -15.9715 -5.49892 4.26933e-006 -2.82196e-007 -4.17e-008 6.36111e-015 -1.27222e-014 -6.36111e-015 -4.28788e-006 -1.32133e-006 4.92483e-007 4.26933e-006 -2.82196e-007 -4.17e-008 -0.0145674 -8.64962e-005 4.53936e-006 -4.2881e-006 -1.32139e-006 4.92319e-007 4.26933e-006 -2.82196e-007 -4.17e-008 -0.0188187 -0.00118133 5.88764e-005 -4.28816e-006 -1.32143e-006 4.92312e-007 4.26933e-006 -2.82196e-007 -4.17e-008 -0.0123001 -0.00325532 0.000679259 -4.28806e-006 -1.32141e-006 4.92474e-007 4.26933e-006 -2.82196e-007 -4.17e-008 6.36111e-015 -1.27222e-014 -6.36111e-015 -4.28788e-006 -1.32133e-006 4.92483e-007 5.73564 -28.5254 -23.2391 66.344 6.38893 23.8537 1.64144 11.6029 103.743 17.5242 -3.54581 -29.5906 1.59028e-015 -7.55382e-015 3.97569e-016 6.06912e-032 -4.37326e-015 7.95139e-016 1.59028e-015 -4.52235e-015 -0 1.59028e-015 -7.55382e-015 3.97569e-016 0.015005 -9.37471e-005 5.09752e-006 -1.59028e-015 -5.36719e-015 -0 1.59028e-015 -7.55382e-015 3.97569e-016 0.0190148 -0.00119967 -6.1677e-005 1.59028e-015 -2.83268e-015 -0 1.59028e-015 -7.55382e-015 3.97569e-016 0.0122371 -0.00324175 -0.000674193 -1.59028e-015 1.98785e-015 -7.95139e-016 1.59028e-015 -7.55382e-015 3.97569e-016 6.06912e-032 -4.37326e-015 7.95139e-016 1.59028e-015 -4.52235e-015 -0 -2.59279 -6.27718 -4.54283 -163.575 72.5583 159.951 -12.904 56.3241 0.602769 2.43472e-007 -9.80395e-007 3.83395e-008 1.87284 -5.56436 4.32088 162.592 73.4867 -159.039 14.7355 56.5577 -2.00513 -3.63005e-007 -2.64847e-006 2.95188e-008 
0.491041 17.5806 40.7499 -7.01671e-015 7.01671e-015 180 0.202013 4.77525 -0.0633458 0.411501 9.55025 -0.144412 0.411502 9.55025 -0.144412 1.15535e-005 35.1589 -8.88756e-006 1.58401e-007 -43.069 1.62931e-007 3.02051 -42.6781 22.8184 -67.0846 8.49447 -31.8834 51.099 -14.4947 -108.28 -15.2501 -16.5489 -5.03857 -4.26019e-006 2.90456e-007 5.02413e-008 3.18055e-015 -1.27222e-014 -0 3.53113e-031 -6.36111e-015 3.18055e-015 -4.26019e-006 2.90456e-007 5.02413e-008 -0.0146927 -8.65892e-005 -6.83526e-007 -4.26146e-006 2.90442e-007 5.02817e-008 -4.26019e-006 2.90456e-007 5.02413e-008 -0.0188026 -0.00117775 5.92314e-005 9.54166e-015 -9.54166e-015 9.54166e-015 -4.26019e-006 2.90456e-007 5.02413e-008 -0.0122362 -0.00323931 0.000680481 -0 -6.36111e-015 -0 -4.26019e-006 2.90456e-007 5.02413e-008 3.18055e-015 -1.27222e-014 -0 3.53113e-031 -6.36111e-015 3.18055e-015 5.4422 -29.0115 -23.5894 66.3911 6.50199 23.9384 1.64146 11.6029 103.743 17.2079 -3.82181 -29.5015 1.59028e-015 8.59744e-015 -0 1.59028e-015 2.03754e-015 5.96354e-016 3.55182e-032 5.11871e-015 -3.97569e-016 1.59028e-015 8.59744e-015 -0 0.0149913 -8.93272e-005 -3.00478e-006 1.12155e-006 -1.05361e-006 -1.39423e-006 1.59028e-015 8.59744e-015 -0 0.0189688 -0.00118881 -6.68636e-005 1.59028e-015 3.52843e-015 -0 1.59028e-015 8.59744e-015 -0 0.0122367 -0.0032365 -0.000674579 4.77083e-015 1.93815e-015 3.97569e-016 1.59028e-015 8.59744e-015 -0 1.59028e-015 2.03754e-015 5.96354e-016 3.55182e-032 5.11871e-015 -3.97569e-016 -2.588 -5.96893 -4.50584 -163.239 72.8958 159.619 -12.7357 56.2192 0.439487 2.53037e-007 -1.65608e-006 -6.53755e-009 2.00557 -5.38369 4.29965 162.203 73.8236 -158.701 14.5527 56.4399 -1.82831 8.11529e-008 -2.34301e-006 -4.17014e-008 
0.491842 17.6398 40.6434 -7.01671e-015 7.01671e-015 180 0.201969 4.97887 -0.0654632 0.412022 9.95748 -0.149473 0.412022 9.95748 -0.149473 1.36395e-005 33.8729 -1.02151e-005 -1.1439e-007 -42.7579 4.45031e-008 3.88632 -43.2899 23.9762 -67.1133 8.71267 -32.0322 51.0202 -14.7935 -108.659 -14.8776 -17.1239 -4.57262 -3.18055e-015 -1.59028e-014 -0 -2.83512e-006 -1.2012e-007 -1.77847e-007 6.36111e-015 0 3.18055e-015 -3.18055e-015 -1.59028e-014 -0 -0.0146526 -8.52893e-005 -6.05055e-007 2.12458e-006 3.29115e-007 2.95674e-007 -3.18055e-015 -1.59028e-014 -0 -0.0187679 -0.00117549 5.96443e-005 3.18055e-015 3.18055e-015 -0 -3.18055e-015 -1.59028e-014 -0 -0.0124356 -0.00329001 0.000683436 -3.18055e-015 -1.59028e-014 -1.27222e-014 -3.18055e-015 -1.59028e-014 -0 -2.83512e-006 -1.2012e-007 -1.77847e-007 6.36111e-015 0 3.18055e-015 5.14383 -29.4962 -23.9445 66.438 6.61513 24.023 1.64144 11.6029 103.743 16.8918 -4.09832 -29.4139 -3.82585e-006 4.29324e-006 2.31663e-006 -2.33693e-007 -4.05955e-006 2.74829e-007 -3.82585e-006 4.29324e-006 2.31663e-006 -3.82585e-006 4.29324e-006 2.31663e-006 0.0149817 -9.42487e-005 3.47842e-006 -3.82548e-006 4.29354e-006 2.31608e-006 -3.82585e-006 4.29324e-006 2.31663e-006 0.019 -0.00119245 -5.65082e-005 -3.82536e-006 4.29359e-006 2.31596e-006 -3.82585e-006 4.29324e-006 2.31663e-006 0.0122508 -0.0032503 -0.000676804 -3.82551e-006 4.29338e-006 2.31627e-006 -3.82585e-006 4.29324e-006 2.31663e-006 -2.33693e-007 -4.05955e-006 2.74829e-007 -3.82585e-006 4.29324e-006 2.31663e-006 -2.58346 -5.65611 -4.46914 -162.883 73.2372 159.267 -12.5683 56.1141 0.277138 -4.93352e-007 -5.98802e-008 9.99595e-008 2.1382 -5.20491 4.27812 161.801 74.1582 -158.349 14.3712 56.3219 -1.65274 2.07543e-007 -2.59472e-008 -4.25057e-008 
